<mxfile host="app.diagrams.net" agent="Mozilla/5.0 (Windows NT 10.0; Win64; x64) AppleWebKit/537.36 (KHTML, like Gecko) Chrome/128.0.0.0 Safari/537.36 Edg/128.0.0.0" version="24.7.7">
  <diagram name="第 1 页" id="56BlYWJSqFPztJBqIIqX">
    <mxGraphModel dx="1459" dy="787" grid="1" gridSize="10" guides="1" tooltips="1" connect="1" arrows="1" fold="1" page="1" pageScale="1" pageWidth="1654" pageHeight="1169" math="1" shadow="0">
      <root>
        <mxCell id="0" />
        <mxCell id="1" parent="0" />
        <mxCell id="Yaq9q1l7534vEPPW3w2g-6" value="&lt;font style=&quot;font-size: 18px;&quot;&gt;R&lt;/font&gt;" style="ellipse;whiteSpace=wrap;html=1;aspect=fixed;fillColor=#f8cecc;strokeColor=#b85450;" vertex="1" parent="1">
          <mxGeometry x="680" y="120" width="80" height="80" as="geometry" />
        </mxCell>
        <mxCell id="Yaq9q1l7534vEPPW3w2g-12" style="edgeStyle=orthogonalEdgeStyle;rounded=0;orthogonalLoop=1;jettySize=auto;html=1;exitX=0;exitY=0.5;exitDx=0;exitDy=0;" edge="1" parent="1" source="Yaq9q1l7534vEPPW3w2g-7" target="Yaq9q1l7534vEPPW3w2g-6">
          <mxGeometry relative="1" as="geometry" />
        </mxCell>
        <mxCell id="Yaq9q1l7534vEPPW3w2g-7" value="&lt;font style=&quot;font-size: 18px;&quot;&gt;U&lt;/font&gt;" style="ellipse;whiteSpace=wrap;html=1;aspect=fixed;fillColor=#ffe6cc;strokeColor=#d79b00;" vertex="1" parent="1">
          <mxGeometry x="840" y="120" width="80" height="80" as="geometry" />
        </mxCell>
        <mxCell id="Yaq9q1l7534vEPPW3w2g-13" style="edgeStyle=orthogonalEdgeStyle;rounded=0;orthogonalLoop=1;jettySize=auto;html=1;exitX=0;exitY=0.5;exitDx=0;exitDy=0;fillColor=#dae8fc;strokeColor=#6c8ebf;" edge="1" parent="1" source="Yaq9q1l7534vEPPW3w2g-8" target="Yaq9q1l7534vEPPW3w2g-10">
          <mxGeometry relative="1" as="geometry" />
        </mxCell>
        <mxCell id="Yaq9q1l7534vEPPW3w2g-14" style="edgeStyle=orthogonalEdgeStyle;rounded=0;orthogonalLoop=1;jettySize=auto;html=1;exitX=1;exitY=0.5;exitDx=0;exitDy=0;fillColor=#dae8fc;strokeColor=#6c8ebf;" edge="1" parent="1" source="Yaq9q1l7534vEPPW3w2g-8" target="Yaq9q1l7534vEPPW3w2g-9">
          <mxGeometry relative="1" as="geometry" />
        </mxCell>
        <mxCell id="Yaq9q1l7534vEPPW3w2g-8" value="&lt;font style=&quot;font-size: 18px;&quot;&gt;I&lt;/font&gt;" style="ellipse;whiteSpace=wrap;html=1;aspect=fixed;fillColor=#dae8fc;strokeColor=#6c8ebf;" vertex="1" parent="1">
          <mxGeometry x="680" y="280" width="80" height="80" as="geometry" />
        </mxCell>
        <mxCell id="Yaq9q1l7534vEPPW3w2g-15" style="rounded=0;orthogonalLoop=1;jettySize=auto;html=1;exitX=0.5;exitY=0;exitDx=0;exitDy=0;entryX=0.5;entryY=1;entryDx=0;entryDy=0;dashed=1;" edge="1" parent="1" source="Yaq9q1l7534vEPPW3w2g-9" target="Yaq9q1l7534vEPPW3w2g-6">
          <mxGeometry relative="1" as="geometry" />
        </mxCell>
        <mxCell id="Yaq9q1l7534vEPPW3w2g-9" value="&lt;span style=&quot;font-size: 18px;&quot;&gt;$$I_{tail}$$&lt;/span&gt;" style="ellipse;whiteSpace=wrap;html=1;aspect=fixed;fillColor=#dae8fc;strokeColor=#6c8ebf;" vertex="1" parent="1">
          <mxGeometry x="840" y="280" width="80" height="80" as="geometry" />
        </mxCell>
        <mxCell id="Yaq9q1l7534vEPPW3w2g-11" style="rounded=0;orthogonalLoop=1;jettySize=auto;html=1;exitX=0.5;exitY=0;exitDx=0;exitDy=0;" edge="1" parent="1" source="Yaq9q1l7534vEPPW3w2g-10">
          <mxGeometry relative="1" as="geometry">
            <mxPoint x="720" y="200" as="targetPoint" />
          </mxGeometry>
        </mxCell>
        <mxCell id="Yaq9q1l7534vEPPW3w2g-10" value="&lt;span style=&quot;font-size: 18px;&quot;&gt;$$I_{head}$$&lt;/span&gt;" style="ellipse;whiteSpace=wrap;html=1;aspect=fixed;fillColor=#dae8fc;strokeColor=#6c8ebf;" vertex="1" parent="1">
          <mxGeometry x="520" y="280" width="80" height="80" as="geometry" />
        </mxCell>
        <mxCell id="Yaq9q1l7534vEPPW3w2g-16" value="&lt;font style=&quot;font-size: 18px;&quot;&gt;R&lt;/font&gt;" style="ellipse;whiteSpace=wrap;html=1;aspect=fixed;fillColor=#f8cecc;strokeColor=#b85450;" vertex="1" parent="1">
          <mxGeometry x="680" y="440" width="80" height="80" as="geometry" />
        </mxCell>
        <mxCell id="Yaq9q1l7534vEPPW3w2g-17" style="edgeStyle=orthogonalEdgeStyle;rounded=0;orthogonalLoop=1;jettySize=auto;html=1;exitX=0;exitY=0.5;exitDx=0;exitDy=0;" edge="1" parent="1" source="Yaq9q1l7534vEPPW3w2g-18" target="Yaq9q1l7534vEPPW3w2g-16">
          <mxGeometry relative="1" as="geometry" />
        </mxCell>
        <mxCell id="Yaq9q1l7534vEPPW3w2g-18" value="&lt;font style=&quot;font-size: 18px;&quot;&gt;U&lt;/font&gt;" style="ellipse;whiteSpace=wrap;html=1;aspect=fixed;fillColor=#ffe6cc;strokeColor=#d79b00;" vertex="1" parent="1">
          <mxGeometry x="840" y="440" width="80" height="80" as="geometry" />
        </mxCell>
        <mxCell id="Yaq9q1l7534vEPPW3w2g-19" style="edgeStyle=orthogonalEdgeStyle;rounded=0;orthogonalLoop=1;jettySize=auto;html=1;exitX=0;exitY=0.5;exitDx=0;exitDy=0;fillColor=#dae8fc;strokeColor=#6c8ebf;" edge="1" parent="1" source="Yaq9q1l7534vEPPW3w2g-21" target="Yaq9q1l7534vEPPW3w2g-25">
          <mxGeometry relative="1" as="geometry" />
        </mxCell>
        <mxCell id="Yaq9q1l7534vEPPW3w2g-20" style="edgeStyle=orthogonalEdgeStyle;rounded=0;orthogonalLoop=1;jettySize=auto;html=1;exitX=1;exitY=0.5;exitDx=0;exitDy=0;fillColor=#dae8fc;strokeColor=#6c8ebf;" edge="1" parent="1" source="Yaq9q1l7534vEPPW3w2g-21" target="Yaq9q1l7534vEPPW3w2g-23">
          <mxGeometry relative="1" as="geometry" />
        </mxCell>
        <mxCell id="Yaq9q1l7534vEPPW3w2g-21" value="&lt;font style=&quot;font-size: 18px;&quot;&gt;I&lt;/font&gt;" style="ellipse;whiteSpace=wrap;html=1;aspect=fixed;fillColor=#dae8fc;strokeColor=#6c8ebf;" vertex="1" parent="1">
          <mxGeometry x="680" y="600" width="80" height="80" as="geometry" />
        </mxCell>
        <mxCell id="Yaq9q1l7534vEPPW3w2g-22" style="rounded=0;orthogonalLoop=1;jettySize=auto;html=1;exitX=0.5;exitY=0;exitDx=0;exitDy=0;entryX=0.5;entryY=1;entryDx=0;entryDy=0;dashed=1;" edge="1" parent="1" source="Yaq9q1l7534vEPPW3w2g-23" target="Yaq9q1l7534vEPPW3w2g-16">
          <mxGeometry relative="1" as="geometry" />
        </mxCell>
        <mxCell id="Yaq9q1l7534vEPPW3w2g-23" value="&lt;span style=&quot;font-size: 18px;&quot;&gt;$$I_{tail}$$&lt;/span&gt;" style="ellipse;whiteSpace=wrap;html=1;aspect=fixed;fillColor=#dae8fc;strokeColor=#6c8ebf;" vertex="1" parent="1">
          <mxGeometry x="840" y="600" width="80" height="80" as="geometry" />
        </mxCell>
        <mxCell id="Yaq9q1l7534vEPPW3w2g-24" style="rounded=0;orthogonalLoop=1;jettySize=auto;html=1;exitX=0.5;exitY=0;exitDx=0;exitDy=0;" edge="1" parent="1" source="Yaq9q1l7534vEPPW3w2g-25">
          <mxGeometry relative="1" as="geometry">
            <mxPoint x="720" y="520" as="targetPoint" />
          </mxGeometry>
        </mxCell>
        <mxCell id="Yaq9q1l7534vEPPW3w2g-25" value="&lt;span style=&quot;font-size: 18px;&quot;&gt;$$I_{head}$$&lt;/span&gt;" style="ellipse;whiteSpace=wrap;html=1;aspect=fixed;fillColor=#dae8fc;strokeColor=#6c8ebf;" vertex="1" parent="1">
          <mxGeometry x="520" y="600" width="80" height="80" as="geometry" />
        </mxCell>
      </root>
    </mxGraphModel>
  </diagram>
</mxfile>
